PathFileType	4	(X/Y/Z)	/Users/niels/Desktop/University/Third Semester/Perception and Action/Exam/Gymnastics Motion Tracking/Code for Gym Tracking/Analyzed Data/Webcam_Backflip/id7_3_trajectory_Sports2D/id7_3_trajectory_Sports2D_px_person00.trc
DataRate	CameraRate	NumFrames	NumMarkers	Units	OrigDataRate	OrigDataStartFrame	OrigNumFrames
29.8125	29.8125	9	22	m	29.8125	80	160
Frame#	Time	Hip			RHip			RKnee			RAnkle			RBigToe			RSmallToe			RHeel			LHip			LKnee			LAnkle			LBigToe			LSmallToe			LHeel			Neck			Head			Nose			RShoulder			RElbow			RWrist			LShoulder			LElbow			LWrist		
		X1	Y1	Z1	X2	Y2	Z2	X3	Y3	Z3	X4	Y4	Z4	X5	Y5	Z5	X6	Y6	Z6	X7	Y7	Z7	X8	Y8	Z8	X9	Y9	Z9	X10	Y10	Z10	X11	Y11	Z11	X12	Y12	Z12	X13	Y13	Z13	X14	Y14	Z14	X15	Y15	Z15	X16	Y16	Z16	X17	Y17	Z17	X18	Y18	Z18	X19	Y19	Z19	X20	Y20	Z20	X21	Y21	Z21	X22	Y22	Z22
80	2.683438155136268	1.1888865597112843	-0.41984901029315913	0.0	1.177602649987045	-0.4163190814262175	0.0	1.199990782343131	-0.5237141496165567	0.0	1.172294886738506	-0.6313750591301082	0.0	1.1938070636256586	-0.6757677996762356	0.0	1.181121719279228	-0.6744322915859681	0.0	1.1589538759040399	-0.6419140567322409	0.0	1.1985331259238208	-0.4178723198424622	0.0	1.2205228302236737	-0.5230737152694271	0.0	1.2256822707842612	-0.6257171429850378	0.0	1.2542233324343437	-0.662027871726975	0.0	1.2583475830011712	-0.6543227199078867	0.0	1.2184977477782373	-0.6374811499336256	0.0	1.2135140954805645	-0.2753590459212701	0.0	1.2368489906092381	-0.20780631018695853	0.0	1.2482058255563886	-0.24739204893824726	0.0	1.206830869274543	-0.28343584954842627	0.0	1.2786783788485605	-0.26458605600232477	0.0	1.3380945706389908	-0.23135638044442877	0.0	1.2158126375090204	-0.2852556670635208	0.0	1.2606325320831304	-0.2620726530466123	0.0	1.2891199222422893	-0.23675873490987953	0.0
81	2.716981132075471	1.198143983740581	-0.43111841741341383	0.0	1.1848076009914237	-0.42750628739630353	0.0	1.2128096909889206	-0.5338672558276683	0.0	1.190391552782536	-0.6431963711443762	0.0	1.2156297405576995	-0.6843384039206707	0.0	1.2016040767494938	-0.6837140467833075	0.0	1.1772569076730377	-0.6544021921316693	0.0	1.2095207045685563	-0.42907201644697185	0.0	1.2340307226416658	-0.5331425535736061	0.0	1.2446605002188011	-0.6363429697712849	0.0	1.273780991676394	-0.6713775225825138	0.0	1.2778394110016398	-0.6642518081507574	0.0	1.2378327349479918	-0.6488290980822888	0.0	1.223925760402115	-0.2871573561411053	0.0	1.244195654715837	-0.21892702126335564	0.0	1.2576335837932264	-0.25959697310939256	0.0	1.2168897321962828	-0.2953360374309011	0.0	1.2898992016179736	-0.28730329534065546	0.0	1.3552392110255105	-0.26367972048610194	0.0	1.226224276724708	-0.2973377827577351	0.0	1.2614490673263843	-0.28417003167749594	0.0	1.276595505293588	-0.2652738654370911	0.0
82	2.7505241090146746	1.2075214869745199	-0.4463907992748538	0.0	1.1926570172191615	-0.4429618521855044	0.0	1.2260422587227742	-0.5478921174803556	0.0	1.2093889013962884	-0.6581825385180026	0.0	1.2378185945587352	-0.6955722217355407	0.0	1.2229001381291975	-0.695723647752997	0.0	1.1972857334140992	-0.6703046570871652	0.0	1.2205736501080315	-0.44423536692376386	0.0	1.247247902639818	-0.547189382770656	0.0	1.2627529516252909	-0.6505858990597304	0.0	1.2920417153755297	-0.6842555527973485	0.0	1.295940207384659	-0.6778821116574306	0.0	1.2565561332661526	-0.6638208305415004	0.0	1.2344527332435355	-0.3029888845360411	0.0	1.2513171303151385	-0.2335762898864541	0.0	1.2663421532484698	-0.2755762104842731	0.0	1.2265221595927887	-0.3118696812350662	0.0	1.2973038647760629	-0.3163748492890788	0.0	1.3671019193912997	-0.304550245449413	0.0	1.2374216269907208	-0.31380563350014745	0.0	1.2630956605408863	-0.31119545624622935	0.0	1.2648281363422909	-0.299153604804911	0.0
83	2.784067085953878	1.2173588310706114	-0.4657587362058126	0.0	1.2014618023120185	-0.4627292956933064	0.0	1.2396224925114199	-0.5659484386456431	0.0	1.2287814344896784	-0.6766424335728582	0.0	1.2597704542433914	-0.7099102794755162	0.0	1.244461593501487	-0.7108510359127138	0.0	1.2184292738134435	-0.6898129063442745	0.0	1.231952471248348	-0.4634125531725273	0.0	1.2601205940272011	-0.5653499551571028	0.0	1.2793980905363007	-0.6687113975998764	0.0	1.308422654980279	-0.7008554544732051	0.0	1.3121051452241754	-0.695368160287661	0.0	1.2740845805366852	-0.682732346661781	0.0	1.2452044298279377	-0.32295005552814154	0.0	1.2582853842732127	-0.25207640225913874	0.0	1.274538825114388	-0.2952050947773182	0.0	1.2352845467881093	-0.3330782808543499	0.0	1.300493335636693	-0.3510585893532029	0.0	1.3720846661578479	-0.3525900122273582	0.0	1.2503519557650715	-0.3347372884480013	0.0	1.2700487553183466	-0.3430249473391705	0.0	1.2662109634230225	-0.3389449339849676	0.0
84	2.817610062893081	1.2279310977098676	-0.4890445912176281	0.0	1.2113716074523775	-0.48661213415555826	0.0	1.2534278355719486	-0.5879974169875986	0.0	1.2475980789733299	-0.6986688700987304	0.0	1.280272032312029	-0.7277167748742108	0.0	1.2651087538154482	-0.7293790114023072	0.0	1.2392801497071204	-0.7128598573233956	0.0	1.2438507919259296	-0.48648621197139197	0.0	1.2726289249063996	-0.5875108280627533	0.0	1.2938340522479264	-0.6908178724067797	0.0	1.3221066909813524	-0.7211511668101158	0.0	1.3254939299199693	-0.7166153337421689	0.0	1.289480497730542	-0.7055643393253941	0.0	1.2560658135683442	-0.34682399744264025	0.0	1.2652990276623999	-0.27461259087084944	0.0	1.2824865184098662	-0.31818856595828243	0.0	1.242961931303879	-0.35859354189234	0.0	1.2997428345287658	-0.3900939243331714	0.0	1.3692050997942662	-0.4054422562641916	0.0	1.2647802349844288	-0.3598173694415872	0.0	1.2838585413630001	-0.3795244586000332	0.0	1.286336564100381	-0.38538627608382314	0.0
85	2.8511530398322846	1.2392694837770704	-0.5157092450945335	0.0	1.222282195712533	-0.5140585547669968	0.0	1.267204702472959	-0.6136800322848917	0.0	1.2645340571153714	-0.7238781414642866	0.0	1.2977499995554669	-0.7489890763077489	0.0	1.2831410093043443	-0.751161218778828	0.0	1.2579507695827943	-0.7388195852049524	0.0	1.2562951491449748	-0.5130482999555357	0.0	1.284748509362211	-0.6132435125798229	0.0	1.3053089050752074	-0.7165402637435657	0.0	1.3324768521028867	-0.7446423612280592	0.0	1.335449787225779	-0.7409777920808301	0.0	1.3017068713390623	-0.731723113892647	0.0	1.266676956751251	-0.3739299621772777	0.0	1.2726188649504082	-0.3009364807092296	0.0	1.290303050744814	-0.3440838770247001	0.0	1.249620131880265	-0.3876525884370889	0.0	1.295765095454322	-0.43175530946735746	0.0	1.3587679447420884	-0.46027788441207274	0.0	1.2795182902570656	-0.38827259602721426	0.0	1.3021596416819072	-0.419636906610654	0.0	1.3188267019333426	-0.43753317677208514	0.0
86	2.884696016771488	1.2511444124595528	-0.5447093469486228	0.0	1.2338400866204537	-0.5439998541700571	0.0	1.2805153043287842	-0.6420798922876333	0.0	1.2783520133561161	-0.7512105654108665	0.0	1.3108456706287692	-0.7729688165380679	0.0	1.296917741401354	-0.7752807229316756	0.0	1.2727225990753377	-0.7663257476084095	0.0	1.269103038910424	-0.5421881159155222	0.0	1.2963470985818162	-0.6416526495624115	0.0	1.313315014198985	-0.7447964713800685	0.0	1.3394310040882453	-0.7701881942738845	0.0	1.3418322735354342	-0.7671736531261386	0.0	1.310035966910646	-0.7598836485824771	0.0	1.2766047947851193	-0.4030690795305896	0.0	1.2803953628100193	-0.33012330954020147	0.0	1.2979062931464527	-0.37209854029708644	0.0	1.2555321869560276	-0.4189929717071256	0.0	1.2894357502765603	-0.47384197028306924	0.0	1.342325766599115	-0.5140143997745605	0.0	1.2933247710500098	-0.4187763532964019	0.0	1.3199442666408299	-0.461095057097967	0.0	1.3506055650203954	-0.49180396901780293	0.0
87	2.918238993710691	1.2631932511751962	-0.574369359660688	0.0	1.245533419368852	-0.574735968036263	0.0	1.292789667753391	-0.6715529435910764	0.0	1.2883352995905961	-0.7788981009471067	0.0	1.3189191335391113	-0.7979898894125307	0.0	1.3055214629860823	-0.7999824761934433	0.0	1.2827014258220557	-0.7934058897430055	0.0	1.2819179870903765	-0.5723089063813764	0.0	1.3071191357379983	-0.6711799180616073	0.0	1.3178240516795474	-0.7737087161483299	0.0	1.3433011182072083	-0.7960913494331209	0.0	1.3449750564734226	-0.7934455488363775	0.0	1.314357155118176	-0.7880787026182028	0.0	1.2855471832905416	-0.4325331896045547	0.0	1.2885114342055817	-0.36048688340512086	0.0	1.305076256358654	-0.4008462197324669	0.0	1.2609988351313441	-0.4507300586308171	0.0	1.281677769756767	-0.5137691873828969	0.0	1.3217373552539577	-0.5634056830813642	0.0	1.3054955752580122	-0.44938896360431785	0.0	1.3327497113268165	-0.5009041471169393	0.0	1.3713814805889883	-0.5432120263874453	0.0
88	2.9517819706498947	1.2749757158043542	-0.6023922081088746	0.0	1.2567704932714328	-0.6039139340528987	0.0	1.3034867042634335	-0.6997515808790984	0.0	1.2944807626251256	-0.804527544708187	0.0	1.32210659031121	-0.8216414896287954	0.0	1.3089262486801259	-0.8228954611215865	0.0	1.2880630214321636	-0.8177111215046059	0.0	1.2942550891700186	-0.6010964306709983	0.0	1.316639027318416	-0.6995387400153704	0.0	1.3193887144938885	-0.8007180585172772	0.0	1.3445891263635388	-0.8202854407855448	0.0	1.3455315141586812	-0.8177254002294402	0.0	1.3152197002995822	-0.8138881212592513	0.0	1.2933844707524316	-0.4601173033935437	0.0	1.296597785475274	-0.38958816444365846	0.0	1.3115100176601402	-0.42820748508924006	0.0	1.2661494500408264	-0.4804435664484022	0.0	1.2735118014903306	-0.5487104827665309	0.0	1.2986953486771708	-0.605072781786789	0.0	1.3158597479407794	-0.4776852849238778	0.0	1.3391239215562716	-0.5359012499934989	0.0	1.3779553281961248	-0.586831216269247	0.0
